

 
http://www.imdb.com/title/tt1961279/


Plot: 2AM, closing time: A cocky bar manager with a shady past and a young handsome bartender discover a beautiful woman bloodied and unconscious in the bathroom of a late night lounge. When she awakens, Tony, Matt and the mysterious Rose are plunged into a stirring evening of dangerous role playing in an ever-escalating game of cat and mouse that forces them to face the dark shadows of themselves. As we begin to piece together the elaborate puzzle, nothing is what it seems. However, one thing is for certain: this Rose is full of thorns. 



Director:
 Christopher Glatis 

Writer:
 Christopher Glatis 

Stars:
 Fairuza Balk, Rick Ravanello, Ryan Merriman

Genres:
  Drama |  Mystery |  Thriller 

Country:
 USA 

Language:
 English 




Format                                   : Matroska
Format version                           : Version 2
File size                                : 1.13 GiB
Duration                                 : 1h 33mn
Overall bit rate                         : 1 740 Kbps
Writing application                      : Lavf52.94.0
Writing library                          : Lavf52.94.0

Video
ID                                       : 1
Format                                   : AVC
Format/Info                              : Advanced Video Codec
Format profile                           : Main@L3.0
Format settings, CABAC                   : Yes
Format settings, ReFrames                : 2 frames
Codec ID                                 : V_MPEG4/ISO/AVC
Duration                                 : 1h 33mn
Bit rate                                 : 1 520 Kbps
Width                                    : 640 pixels
Height                                   : 360 pixels
Display aspect ratio                     : 16:9
Frame rate mode                          : Variable
Frame rate                               : 23.976 fps
Color space                              : YUV
Chroma subsampling                       : 4:2:0
Bit depth                                : 8 bits
Scan type                                : Progressive
Bits/(Pixel*Frame)                       : 0.275
Stream size                              : 987 MiB (85%)
Writing library                          : x264 core 112 r1834 a51816a
Encoding settings                        : cabac=1 / ref=1 / deblock=1:0:0 / analyse=0x1:0 / me=dia / subme=2 / psy=1 / psy_rd=0.00:0.00 / mixed_ref=0 / me_range=16 / chroma_me=1 / trellis=0 / 8x8dct=0 / cqm=0 / deadzone=21,11 / fast_pskip=1 / chroma_qp_offset=0 / threads=4 / sliced_threads=0 / nr=0 / decimate=1 / interlaced=0 / constrained_intra=0 / bframes=3 / b_pyramid=0 / b_adapt=1 / b_bias=0 / direct=3 / weightb=0 / open_gop=0 / weightp=2 / keyint=250 / keyint_min=25 / scenecut=40 / intra_refresh=0 / rc_lookahead=40 / rc=abr / mbtree=1 / bitrate=1520 / ratetol=1.0 / qcomp=0.60 / qpmin=10 / qpmax=51 / qpstep=4 / ip_ratio=1.41 / aq=1:1.00
Default                                  : Yes
Forced                                   : No

Audio
ID                                       : 2
Format                                   : AC-3
Format/Info                              : Audio Coding 3
Mode extension                           : CM (complete main)
Format settings, Endianness              : Big
Codec ID                                 : A_AC3
Duration                                 : 1h 33mn
Bit rate mode                            : Constant
Bit rate                                 : 224 Kbps
Channel(s)                               : 6 channels
Channel positions                        : Front: L C R, Side: L R, LFE
Sampling rate                            : 48.0 KHz
Bit depth                                : 16 bits
Compression mode                         : Lossy
Stream size                              : 149 MiB (13%)
Default                                  : Yes
Forced                                   : No




    	http://www.shotpix.com/images/61240764734655129658.png
    	http://www.shotpix.com/images/36097347639018306604.png
    	http://www.shotpix.com/images/57399226725201330975.png
    	http://www.shotpix.com/images/00165337814317847081.png
    	http://www.shotpix.com/images/21546282505967225142.png